<svg width="263" height="137" viewBox="0 0 263 137" fill="none" xmlns="http://www.w3.org/2000/svg">
<g clip-path="url(#clip0_2804_11238)">
<rect width="263" height="136.558" fill="#F7F7FA"/>
<rect x="64.1795" y="24.1914" width="135.641" height="18.5808" rx="4.12754" fill="white"/>
<rect x="64.1795" y="24.1914" width="135.641" height="18.5808" rx="4.12754" stroke="#E1E1E8" stroke-width="0.358917"/>
<rect x="64" y="14" width="5.72117" height="5.72117" rx="2.86058" fill="#E8E8EE"/>
<rect x="72.5818" y="14" width="43.376" height="5.72117" rx="2.86058" fill="#E8E8EE"/>
<rect x="64.1795" y="64.2398" width="135.641" height="18.5808" rx="4.12754" fill="white"/>
<rect x="64.1795" y="64.2398" width="135.641" height="18.5808" rx="4.12754" stroke="#E1E1E8" stroke-width="0.358917"/>
<rect x="64" y="54.0481" width="5.72117" height="5.72117" rx="2.86058" fill="#E8E8EE"/>
<rect x="72.5818" y="54.0481" width="43.376" height="5.72117" rx="2.86058" fill="#E8E8EE"/>
<rect x="64.1795" y="104.192" width="135.641" height="18.5808" rx="4.12754" fill="white"/>
<rect x="64.1795" y="104.192" width="135.641" height="18.5808" rx="4.12754" stroke="#E1E1E8" stroke-width="0.358917"/>
<path fill-rule="evenodd" clip-rule="evenodd" d="M183.219 116.452L178.264 111.75L179.233 110.831L183.219 114.614L187.205 110.831L188.173 111.75L183.219 116.452Z" fill="#CDCED6"/>
<rect x="64" y="94" width="5.72117" height="5.72117" rx="2.86058" fill="#E8E8EE"/>
<rect x="72.5818" y="94" width="43.376" height="5.72117" rx="2.86058" fill="#E8E8EE"/>
</g>
<defs>
<clipPath id="clip0_2804_11238">
<rect width="263" height="136.558" fill="white"/>
</clipPath>
</defs>
</svg>
