<svg width="796" height="452" viewBox="0 0 796 452" fill="none" xmlns="http://www.w3.org/2000/svg">
<g clip-path="url(#clip0_302_11397)">
<path d="M0 8C0 3.58173 3.58172 0 8 0H788C792.418 0 796 3.58172 796 8V444C796 448.418 792.418 452 788 452H7.99999C3.58171 452 0 448.418 0 444V8Z" fill="url(#paint0_linear_302_11397)"/>
<path d="M359.514 87.9878V93.6508H361.645V95.3211H359.514V102.463H357.51V87.9878H359.514ZM356.523 90.1512V91.7737H348.013V90.1512H351.29V88.2105H353.326V90.1512H356.523ZM352.308 92.585C354.424 92.585 355.998 94.0167 355.998 96.0369C355.998 98.0571 354.424 99.4888 352.308 99.4888C350.176 99.4888 348.601 98.0571 348.601 96.0369C348.601 94.0167 350.176 92.585 352.308 92.585ZM352.308 94.2235C351.29 94.2394 350.542 94.9234 350.542 96.0369C350.542 97.1663 351.29 97.8344 352.308 97.8185C353.326 97.8344 354.058 97.1663 354.058 96.0369C354.058 94.9234 353.326 94.2394 352.308 94.2235ZM375.44 93.4758V95.1302H373.388V102.432H371.352V87.9878H373.388V93.4758H375.44ZM364.448 89.3717V97.214C366.302 97.1902 368.29 97.0152 370.382 96.5937L370.589 98.2798C368.171 98.773 365.816 98.9002 363.685 98.9002H362.428V89.3717H364.448ZM380.534 88.9581C382.825 88.9422 384.543 90.4375 384.543 92.5055C384.543 94.5893 382.825 96.0687 380.534 96.0687C378.243 96.0687 376.509 94.5893 376.509 92.5055C376.509 90.4375 378.243 88.9422 380.534 88.9581ZM380.534 90.7079C379.389 90.7079 378.514 91.376 378.53 92.5055C378.514 93.6508 379.389 94.303 380.534 94.303C381.679 94.303 382.554 93.6508 382.57 92.5055C382.554 91.376 381.695 90.7079 380.534 90.7079ZM388.01 87.9878V102.495H385.99V87.9878H388.01ZM375.905 97.8822C378.482 97.8981 382.061 97.8503 385.163 97.4208L385.322 98.8843C382.109 99.5047 378.673 99.5365 376.143 99.5365L375.905 97.8822ZM397.163 89.0058C399.375 89.0058 400.965 91.0102 400.981 94.1598C400.965 97.3413 399.375 99.3297 397.163 99.3297C394.952 99.3297 393.33 97.3413 393.346 94.1598C393.33 91.0102 394.952 89.0058 397.163 89.0058ZM397.163 90.8352C396.05 90.8352 395.302 92.0123 395.302 94.1598C395.302 96.3232 396.05 97.4845 397.163 97.4845C398.293 97.4845 399.025 96.3232 399.041 94.1598C399.025 92.0123 398.293 90.8352 397.163 90.8352ZM404.688 87.9878V93.444H406.819V95.1302H404.688V102.463H402.652V87.9878H404.688ZM419.262 87.9878V102.495H417.21V87.9878H419.262ZM411.404 89.0058C413.583 89.0058 415.206 91.0102 415.206 94.1598C415.206 97.3413 413.583 99.3297 411.404 99.3297C409.177 99.3297 407.554 97.3413 407.57 94.1598C407.554 91.0102 409.177 89.0058 411.404 89.0058ZM411.404 90.8352C410.274 90.8352 409.527 92.0123 409.527 94.1598C409.527 96.3232 410.274 97.4845 411.404 97.4845C412.501 97.4845 413.249 96.3232 413.249 94.1598C413.249 92.0123 412.501 90.8352 411.404 90.8352ZM433.136 87.9878V102.495H431.084V87.9878H433.136ZM428.937 89.2604V90.9147H423.926V97.3254C426.519 97.3174 428.11 97.2618 429.939 96.9277L430.13 98.598C428.126 98.9798 426.28 99.0434 423.147 99.0434H421.89V89.2604H428.937ZM448.14 99.1866V100.857H434.889V99.1866H440.473V97.0072H436.417V92.1396H444.609V90.5489H436.401V88.9263H446.613V93.7303H438.453V95.3529H446.947V97.0072H442.493V99.1866H448.14ZM330.228 112.831V114.135C330.228 115.487 330.228 116.967 329.863 118.987H331.771V120.625H326.124V126.479H324.088V120.625H318.568V118.987H327.81C328.176 117.118 328.208 115.702 328.208 114.453H320.079V112.831H330.228ZM345.678 119.289V120.896H332.427V119.289H345.678ZM344.071 112.258V116.124H336.101V116.967H344.341V118.51H334.081V114.66H342.035V113.817H334.049V112.258H344.071ZM344.135 121.787V126.304H334.129V121.787H344.135ZM336.117 123.393V124.682H342.114V123.393H336.117ZM355.34 115.265C355.34 117.985 356.437 120.625 358.855 121.675L357.615 123.298C356.008 122.51 354.934 121.071 354.338 119.289C353.701 121.182 352.588 122.733 350.933 123.552L349.661 121.898C352.142 120.785 353.272 117.985 353.288 115.265V113.101H355.34V115.265ZM362.085 111.988V126.495H360.08V118.176H357.233V116.537H360.08V111.988H362.085ZM375.863 111.988V126.495H373.811V111.988H375.863ZM366.494 113.133V116.665H369.612V113.133H371.616V123.107H364.458V113.133H366.494ZM366.494 121.469H369.612V118.239H366.494V121.469ZM385.236 113.897C385.236 116.012 387.113 118.287 390.39 118.844L389.499 120.53C386.978 120.029 385.101 118.613 384.17 116.744C383.208 118.597 381.331 120.021 378.825 120.53L377.951 118.844C381.164 118.271 383.057 115.996 383.073 113.897V112.847H385.236V113.897ZM390.867 123.012V124.682H377.616V123.012H390.867ZM404.726 118.478V119.989H391.475V118.478H404.726ZM403.135 120.705V124.125H395.022V124.952H403.565V126.336H393.002V122.837H401.131V122.105H392.986V120.705H403.135ZM403.119 112.242V115.646H395.15V116.426H403.374V117.794H393.129V114.358H401.083V113.626H393.098V112.242H403.119ZM421.037 111.988V126.495H418.985V111.988H421.037ZM413.179 113.006C415.358 113.006 416.981 115.01 416.981 118.16C416.981 121.341 415.358 123.33 413.179 123.33C410.952 123.33 409.329 121.341 409.345 118.16C409.329 115.01 410.952 113.006 413.179 113.006ZM413.179 114.835C412.05 114.835 411.302 116.012 411.302 118.16C411.302 120.323 412.05 121.484 413.179 121.484C414.277 121.484 415.024 120.323 415.024 118.16C415.024 116.012 414.277 114.835 413.179 114.835ZM435.993 118.844V120.466H422.79V118.844H425.765V117.11C424.707 116.641 424.111 115.925 424.111 114.994C424.111 113.244 426.163 112.195 429.392 112.195C432.589 112.195 434.641 113.244 434.657 114.994C434.649 115.933 434.029 116.665 432.955 117.126V118.844H435.993ZM429.376 121.23C432.51 121.23 434.403 122.153 434.419 123.823C434.403 125.525 432.51 126.448 429.376 126.448C426.194 126.448 424.301 125.525 424.301 123.823C424.301 122.153 426.194 121.23 429.376 121.23ZM429.376 122.757C427.372 122.757 426.354 123.107 426.369 123.823C426.354 124.571 427.372 124.936 429.376 124.936C431.333 124.936 432.366 124.571 432.382 123.823C432.366 123.107 431.333 122.757 429.376 122.757ZM429.392 113.753C427.34 113.753 426.21 114.183 426.226 114.994C426.21 115.79 427.34 116.187 429.392 116.187C431.412 116.187 432.557 115.79 432.557 114.994C432.557 114.183 431.412 113.753 429.392 113.753ZM427.817 118.844H430.935V117.635C430.458 117.691 429.941 117.714 429.392 117.714C428.827 117.714 428.302 117.691 427.817 117.619V118.844ZM448.086 111.988V117.651H450.218V119.321H448.086V126.463H446.082V111.988H448.086ZM445.096 114.151V115.774H436.585V114.151H439.862V112.21H441.898V114.151H445.096ZM440.88 116.585C442.996 116.585 444.571 118.017 444.571 120.037C444.571 122.057 442.996 123.489 440.88 123.489C438.749 123.489 437.174 122.057 437.174 120.037C437.174 118.017 438.749 116.585 440.88 116.585ZM440.88 118.223C439.862 118.239 439.114 118.923 439.114 120.037C439.114 121.166 439.862 121.834 440.88 121.819C441.898 121.834 442.63 121.166 442.63 120.037C442.63 118.923 441.898 118.239 440.88 118.223ZM455.184 115.631C455.184 117.969 455.836 120.387 457.809 121.659L456.711 123.234C455.462 122.479 454.667 121.238 454.214 119.751C453.689 121.389 452.822 122.757 451.509 123.552L450.269 122.057C452.416 120.721 453.212 118.176 453.212 115.726V113.229H455.184V115.631ZM463.09 111.988V126.463H461.149V111.988H463.09ZM460.052 112.195V125.795H458.159V118.526H456.282V116.871H458.159V112.195H460.052ZM477.664 123.107V124.777H464.414V123.107H467.372V119.56C466.251 118.892 465.575 117.866 465.575 116.585C465.575 114.247 467.865 112.688 471.015 112.688C474.149 112.688 476.455 114.247 476.471 116.585C476.463 117.834 475.803 118.852 474.721 119.528V123.107H477.664ZM471.015 114.294C468.947 114.294 467.579 115.122 467.579 116.585C467.579 118.001 468.947 118.876 471.015 118.876C473.067 118.876 474.451 118.001 474.467 116.585C474.451 115.122 473.067 114.294 471.015 114.294ZM469.377 123.107H472.669V120.291C472.152 120.395 471.596 120.45 471.015 120.45C470.434 120.45 469.886 120.403 469.377 120.291V123.107Z" fill="#2B2D36"/>
<path d="M261 164.525C261 158.557 265.838 153.719 271.806 153.719H524.395C530.363 153.719 535.201 158.557 535.201 164.525V394.037C535.201 400.005 530.363 404.843 524.395 404.843H271.806C265.838 404.843 261 400.005 261 394.037V164.525Z" fill="white"/>
<path d="M283.453 172.558V179.7H282.698V172.558H283.453ZM279.643 173.091C280.701 173.091 281.481 174.061 281.481 175.588C281.481 177.123 280.701 178.093 279.643 178.093C278.57 178.093 277.798 177.123 277.798 175.588C277.798 174.061 278.57 173.091 279.643 173.091ZM279.643 173.767C278.983 173.767 278.53 174.466 278.53 175.588C278.53 176.717 278.983 177.417 279.643 177.417C280.296 177.417 280.749 176.717 280.749 175.588C280.749 174.466 280.296 173.767 279.643 173.767ZM287.597 173.361V175.214H288.552V172.693H289.275V179.334H288.552V175.835H287.597V177.807H284.829V173.361H287.597ZM285.545 173.957V177.203H286.889V173.957H285.545ZM290.723 172.558V179.684H289.999V172.558H290.723ZM293.65 172.796C294.724 172.804 295.511 173.464 295.519 174.395C295.511 175.333 294.724 175.986 293.65 175.986C292.568 175.986 291.773 175.333 291.773 174.395C291.773 173.464 292.568 172.804 293.65 172.796ZM293.65 173.433C292.99 173.425 292.505 173.814 292.513 174.395C292.505 174.983 292.99 175.373 293.65 175.373C294.302 175.373 294.787 174.983 294.787 174.395C294.787 173.814 294.302 173.425 293.65 173.433ZM297.539 172.558V176.184H296.784V172.558H297.539ZM297.539 176.511V178.308H293.61V178.992H297.778V179.597H292.878V177.743H296.792V177.115H292.855V176.511H297.539Z" fill="#525463"/>
<g clip-path="url(#clip1_302_11397)">
<path d="M277.289 193.841C277.289 190.857 279.708 188.438 282.692 188.438H513.509C516.493 188.438 518.912 190.857 518.912 193.841V210.183C518.912 213.167 516.493 215.586 513.509 215.586H282.692C279.708 215.586 277.289 213.167 277.289 210.183V193.841Z" fill="white"/>
</g>
<path d="M282.693 188.778H513.509C516.305 188.778 518.572 191.045 518.572 193.841V210.184C518.572 212.98 516.305 215.247 513.509 215.247H282.693C279.896 215.247 277.629 212.98 277.629 210.184V193.841C277.629 191.045 279.896 188.778 282.693 188.778Z" stroke="#E1E1E8" stroke-width="0.678715"/>
<path d="M283.453 228.995V236.138H282.698V228.995H283.453ZM278.705 229.592V231.421H280.622V229.592H281.369V234.428H277.949V229.592H278.705ZM278.705 233.807H280.622V232.018H278.705V233.807ZM288.353 229.377V232.312H284.964V229.377H288.353ZM285.704 229.99V231.723H287.605V229.99H285.704ZM290.492 228.995V232.646H289.745V228.995H290.492ZM290.492 232.988V234.762H286.571V235.446H290.723V236.05H285.831V234.213H289.753V233.577H285.816V232.988H290.492ZM297.571 229.003V234.269H296.815V231.58H295.257V233.084H291.972V229.473H292.727V230.682H294.509V229.473H295.257V230.968H296.815V229.003H297.571ZM297.73 235.358V235.971H292.918V233.752H293.682V235.358H297.73ZM292.727 232.471H294.509V231.262H292.727V232.471ZM304.841 229.998V230.61H298.979V229.998H301.54V229.099H302.288V229.998H304.841ZM305.191 234.706V235.319H298.669V234.706H301.54V233.76C300.291 233.684 299.536 233.191 299.536 232.4C299.536 231.541 300.442 231.039 301.914 231.039C303.369 231.039 304.284 231.541 304.284 232.4C304.284 233.191 303.524 233.684 302.288 233.76V234.706H305.191ZM301.914 231.636C300.896 231.636 300.299 231.906 300.307 232.4C300.299 232.893 300.896 233.163 301.914 233.171C302.916 233.163 303.513 232.893 303.513 232.4C303.513 231.906 302.916 231.636 301.914 231.636Z" fill="#525463"/>
<g clip-path="url(#clip2_302_11397)">
<path d="M277.289 250.278C277.289 247.294 279.708 244.875 282.692 244.875H513.509C516.493 244.875 518.912 247.294 518.912 250.278V266.621C518.912 269.605 516.493 272.024 513.509 272.024H282.692C279.708 272.024 277.289 269.605 277.289 266.621V250.278Z" fill="white"/>
</g>
<path d="M282.693 245.215H513.509C516.305 245.215 518.572 247.482 518.572 250.279V266.622C518.572 269.418 516.305 271.685 513.509 271.685H282.693C279.896 271.685 277.629 269.418 277.629 266.622V250.279C277.629 247.482 279.896 245.215 282.693 245.215Z" stroke="#E1E1E8" stroke-width="0.678715"/>
<path d="M280.166 285.832C278.755 285.832 277.772 285.052 277.781 283.957C277.772 283.085 278.375 282.371 279.145 282.25V282.213C278.477 282.055 278.041 281.443 278.041 280.71C278.041 279.68 278.941 278.928 280.166 278.928C281.391 278.928 282.291 279.68 282.3 280.71C282.291 281.443 281.845 282.055 281.186 282.213V282.25C281.947 282.371 282.551 283.085 282.56 283.957C282.551 285.052 281.567 285.832 280.166 285.832ZM280.166 285.099C281.131 285.099 281.725 284.616 281.725 283.911C281.725 283.169 281.066 282.621 280.166 282.621C279.266 282.621 278.598 283.169 278.616 283.911C278.598 284.616 279.201 285.099 280.166 285.099ZM280.166 281.916C280.927 281.916 281.483 281.452 281.483 280.775C281.483 280.106 280.955 279.652 280.166 279.652C279.368 279.652 278.848 280.106 278.848 280.775C278.848 281.452 279.396 281.916 280.166 281.916ZM283.884 282.278C284.181 281.934 284.552 281.749 284.96 281.749C285.665 281.749 286.306 282.287 286.983 282.287C287.401 282.287 287.763 282.083 288.041 281.703V282.473C287.735 282.825 287.373 283.002 286.965 283.002C286.259 283.002 285.619 282.463 284.932 282.463C284.524 282.463 284.162 282.668 283.884 283.048V282.278ZM291.88 279.021V285.739H291.035V279.893H290.998L289.365 280.979V280.134L291.035 279.021H291.88ZM295.941 285.832C294.772 285.813 293.491 285.127 293.491 282.64C293.491 280.264 294.466 278.928 296.043 278.928C297.222 278.928 298.048 279.652 298.224 280.71H297.398C297.24 280.116 296.795 279.67 296.043 279.67C294.939 279.67 294.28 280.617 294.28 282.231H294.364C294.753 281.675 295.366 281.341 296.09 281.341C297.287 281.341 298.28 282.269 298.28 283.568C298.28 284.83 297.352 285.841 295.941 285.832ZM295.941 285.099C296.813 285.099 297.463 284.412 297.472 283.577C297.463 282.751 296.841 282.074 295.96 282.074C295.078 282.074 294.401 282.788 294.391 283.586C294.391 284.375 295.041 285.099 295.941 285.099ZM301.858 280.775C301.849 282.102 302.805 283.558 304.002 284.124L303.584 284.7C302.656 284.25 301.872 283.266 301.506 282.148C301.125 283.364 300.295 284.431 299.372 284.904L298.926 284.329C300.114 283.753 301.135 282.185 301.144 280.775V279.698H299.223V279.095H303.714V279.698H301.858V280.775ZM305.449 278.241V281.582H306.832V282.204H305.449V286.491H304.726V278.241H305.449ZM308.564 285.117L307.841 287.641H307.154L307.664 285.117H308.564ZM314.163 278.742C314.859 278.738 315.453 278.998 315.834 279.438H317.996V278.241H318.729V283.132H317.996V281.953H315.843C315.453 282.394 314.859 282.654 314.163 282.649C312.929 282.658 312.02 281.851 312.02 280.7C312.02 279.54 312.929 278.733 314.163 278.742ZM314.163 279.373C313.319 279.364 312.716 279.921 312.716 280.7C312.716 281.471 313.319 282.027 314.163 282.027C314.98 282.027 315.592 281.471 315.592 280.7C315.592 279.921 314.98 279.364 314.163 279.373ZM315.991 283.326C317.699 283.326 318.757 283.902 318.757 284.895C318.757 285.897 317.699 286.472 315.991 286.472C314.275 286.472 313.226 285.897 313.226 284.895C313.226 283.902 314.275 283.326 315.991 283.326ZM315.991 283.892C314.729 283.892 313.941 284.273 313.941 284.895C313.941 285.516 314.729 285.887 315.991 285.887C317.263 285.887 318.042 285.516 318.042 284.895C318.042 284.273 317.263 283.892 315.991 283.892ZM316.186 280.032C316.256 280.236 316.298 280.459 316.298 280.7C316.298 280.932 316.256 281.15 316.186 281.35H317.996V280.032H316.186ZM327.578 282.463V283.067H324.219V284.755H323.495V283.067H320.025V282.463H327.578ZM326.595 278.65V281.517H321.008V278.65H326.595ZM321.723 279.225V280.932H325.871V279.225H321.723ZM326.734 285.702V286.314H320.99V283.939H321.723V285.702H326.734ZM329.533 285.117L328.809 287.641H328.123L328.633 285.117H329.533ZM340.375 282.612V283.196H332.849V282.612H340.375ZM339.401 284.004V286.491H338.658V284.588H333.694V284.004H339.401ZM339.484 281.248V281.814H333.852V278.464H339.438V279.049H334.585V279.837H339.215V280.403H334.585V281.248H339.484ZM345.142 279.012C345.142 280.171 346.663 281.183 348.148 281.387L347.851 281.981C346.571 281.767 345.304 281.058 344.77 280.042C344.241 281.062 342.97 281.767 341.69 281.981L341.393 281.387C342.877 281.183 344.39 280.19 344.39 279.012V278.538H345.142V279.012ZM348.519 282.89V283.503H345.104V286.491H344.39V283.503H341.003V282.89H348.519ZM356.691 282.463V283.067H353.332V284.755H352.609V283.067H349.138V282.463H356.691ZM355.708 278.65V281.517H350.122V278.65H355.708ZM350.836 279.225V280.932H354.984V279.225H350.836ZM355.847 285.702V286.314H350.103V283.939H350.836V285.702H355.847ZM360.085 280.775C360.075 282.102 361.031 283.558 362.228 284.124L361.811 284.7C360.883 284.25 360.099 283.266 359.732 282.148C359.352 283.364 358.521 284.431 357.598 284.904L357.152 284.329C358.34 283.753 359.361 282.185 359.37 280.775V279.698H357.449V279.095H361.941V279.698H360.085V280.775ZM363.676 278.241V281.582H365.058V282.204H363.676V286.491H362.952V278.241H363.676ZM375.306 284.848V285.47H367.753V284.848H371.14V282.946H368.44V282.361H369.729V279.652H368.421V279.049H374.582V279.652H373.274V282.361H374.564V282.946H371.854V284.848H375.306ZM370.453 282.361H372.56V279.652H370.453V282.361ZM382.346 278.241V280.441H383.59V281.062H382.346V283.215H381.623V278.241H382.346ZM382.346 283.688V286.379H377.141V283.688H382.346ZM377.855 284.273V285.785H381.623V284.273H377.855ZM380.834 279.123V279.726H375.916V279.123H378.013V278.176H378.737V279.123H380.834ZM378.375 280.134C379.563 280.134 380.351 280.719 380.361 281.6C380.351 282.501 379.563 283.076 378.375 283.076C377.178 283.076 376.38 282.501 376.389 281.6C376.38 280.719 377.178 280.134 378.375 280.134ZM378.375 280.7C377.595 280.7 377.076 281.062 377.085 281.6C377.076 282.166 377.595 282.51 378.375 282.519C379.145 282.51 379.665 282.166 379.674 281.6C379.665 281.062 379.145 280.7 378.375 280.7Z" fill="#6C6E7E"/>
<path d="M277.289 311.445C277.289 309.953 278.499 308.743 279.991 308.743H285.447C286.939 308.743 288.149 309.953 288.149 311.445V316.901C288.149 318.393 286.939 319.602 285.447 319.602H279.991C278.499 319.602 277.289 318.393 277.289 316.901V311.445Z" fill="#2A6FF3"/>
<path fill-rule="evenodd" clip-rule="evenodd" d="M285.224 312.333C284.945 312.071 284.493 312.071 284.215 312.333L281.814 314.59L281.222 314.034C280.944 313.772 280.492 313.772 280.213 314.034C279.934 314.296 279.934 314.721 280.213 314.983L281.309 316.012C281.588 316.275 282.039 316.275 282.319 316.012L285.224 313.282C285.504 313.02 285.504 312.596 285.224 312.333Z" fill="white"/>
<path d="M296.705 312.708C296.696 314.035 297.652 315.492 298.849 316.058L298.431 316.633C297.503 316.183 296.719 315.2 296.353 314.082C295.972 315.297 295.142 316.364 294.219 316.838L293.773 316.262C294.961 315.687 295.982 314.119 295.991 312.708V311.632H294.07V311.029H298.561V311.632H296.705V312.708ZM300.297 310.175V313.516H301.679V314.137H300.297V318.424H299.573V310.175H300.297ZM309.582 314.258V314.843H302.057V314.258H305.462V313.293H303.012V310.565H308.645V311.149H303.727V312.699H308.701V313.293H306.167V314.258H309.582ZM305.815 315.446C307.587 315.446 308.645 315.984 308.654 316.93C308.645 317.886 307.587 318.415 305.815 318.424C304.033 318.415 302.966 317.886 302.966 316.93C302.966 315.984 304.033 315.446 305.815 315.446ZM305.815 316.021C304.488 316.021 303.699 316.364 303.708 316.93C303.699 317.506 304.488 317.84 305.815 317.84C307.123 317.84 307.921 317.506 307.921 316.93C307.921 316.364 307.123 316.021 305.815 316.021ZM320.071 316.791V317.404H312.518V316.791H315.914V315.232H313.464V312.69H318.401V311.391H313.446V310.787H319.115V313.284H314.188V314.629H319.31V315.232H316.629V316.791H320.071ZM327.167 311.057V311.882C327.167 312.922 327.167 314.1 326.861 315.891L326.118 315.817C326.452 314.128 326.452 312.894 326.452 311.882V311.66H321.479V311.057H327.167ZM328.178 316.606V317.209H320.662V316.606H328.178ZM335.618 310.184V316.216H334.894V310.184H335.618ZM335.877 317.636V318.248H330.291V315.603H331.015V317.636H335.877ZM331.163 310.76C332.398 310.76 333.326 311.595 333.326 312.783C333.326 313.989 332.398 314.815 331.163 314.815C329.929 314.815 329.001 313.989 329.001 312.783C329.001 311.595 329.929 310.76 331.163 310.76ZM331.163 311.4C330.328 311.4 329.707 311.975 329.716 312.783C329.707 313.608 330.328 314.174 331.163 314.174C331.98 314.174 332.611 313.608 332.611 312.783C332.611 311.975 331.98 311.4 331.163 311.4Z" fill="#2B2D36"/>
<path d="M440.718 309.995V317.673H439.552V309.995H440.718ZM444.702 317.673H442.209V309.995H444.776C447.035 309.995 448.392 311.437 448.392 313.823C448.392 316.22 447.035 317.673 444.702 317.673ZM443.376 316.655H444.638C446.377 316.655 447.236 315.637 447.236 313.823C447.236 312.02 446.377 311.013 444.702 311.013H443.376V316.655ZM452.047 309.634L449.576 318.829H448.568L451.039 309.634H452.047ZM460.346 309.072V318.595H459.339V309.072H460.346ZM454.015 309.868V312.307H456.571V309.868H457.568V316.315H453.007V309.868H454.015ZM454.015 315.488H456.571V313.102H454.015V315.488ZM466.811 309.581V313.494H462.293V309.581H466.811ZM463.279 310.398V312.71H465.814V310.398H463.279ZM469.663 309.072V313.94H468.667V309.072H469.663ZM469.663 314.396V316.761H464.435V317.673H469.971V318.479H463.449V316.029H468.677V315.181H463.428V314.396H469.663ZM479.034 309.083V316.103H478.027V312.519H475.948V314.523H471.568V309.708H472.576V311.32H474.951V309.708H475.948V311.702H478.027V309.083H479.034ZM479.246 317.556V318.373H472.83V315.414H473.848V317.556H479.246ZM472.576 313.706H474.951V312.095H472.576V313.706ZM488.659 310.408V311.225H480.843V310.408H484.258V309.21H485.255V310.408H488.659ZM489.126 316.686V317.503H480.43V316.686H484.258V315.424C482.593 315.324 481.586 314.666 481.586 313.611C481.586 312.466 482.795 311.798 484.756 311.798C486.697 311.798 487.917 312.466 487.917 313.611C487.917 314.666 486.904 315.324 485.255 315.424V316.686H489.126ZM484.756 312.593C483.399 312.593 482.604 312.954 482.614 313.611C482.604 314.269 483.399 314.629 484.756 314.64C486.093 314.629 486.888 314.269 486.888 313.611C486.888 312.954 486.093 312.593 484.756 312.593ZM495.66 311.034C495.66 312.116 496.519 313.134 497.972 313.537L497.516 314.311C496.408 314.003 495.597 313.335 495.173 312.476C494.754 313.415 493.921 314.147 492.797 314.491L492.309 313.696C493.762 313.282 494.664 312.222 494.664 311.034V310.928H492.596V310.122H494.664V309.03H495.671V310.122H497.728V310.928H495.66V311.034ZM499.796 309.072V311.352H501.175V312.19H499.796V314.555H498.789V309.072H499.796ZM499.945 315.032V315.838H497.347C497.527 316.724 498.746 317.535 500.337 317.768L499.966 318.542C498.524 318.32 497.336 317.657 496.785 316.75C496.238 317.652 495.061 318.304 493.624 318.532L493.253 317.758C494.849 317.535 496.053 316.75 496.244 315.838H493.635V315.032H499.945ZM509.549 309.072V318.574H508.531V309.072H509.549ZM506.717 310.09C506.717 312.869 505.529 315.287 502.274 316.846L501.743 316.029C504.273 314.825 505.503 313.113 505.699 310.896H502.199V310.09H506.717Z" fill="#3E404C"/>
<path d="M277.289 335.865C277.289 332.881 279.708 330.462 282.692 330.462H513.509C516.493 330.462 518.912 332.881 518.912 335.865V352.207C518.912 355.191 516.493 357.61 513.509 357.61H282.692C279.708 357.61 277.289 355.191 277.289 352.207V335.865Z" fill="#2A6FF3"/>
<path d="M392.646 346.454V347.303H383.95V346.454H387.779V344.789H385.011V341.767H390.589V340.431H384.99V339.604H391.586V342.573H386.008V343.962H391.809V344.789H388.776V346.454H392.646ZM400.797 339.901V340.919C400.797 342.149 400.797 343.485 400.447 345.511L399.419 345.415C399.801 343.517 399.801 342.117 399.801 340.919V340.728H394.201V339.901H400.797ZM401.932 346.253V347.091H393.268V346.253H401.932ZM410.465 338.946V345.85H409.457V338.946H410.465ZM410.751 347.419V348.236H404.25V345.15H405.268V347.419H410.751ZM405.311 339.582C406.742 339.582 407.835 340.558 407.835 341.937C407.835 343.337 406.742 344.302 405.311 344.302C403.879 344.302 402.776 343.337 402.776 341.937C402.776 340.558 403.879 339.582 405.311 339.582ZM405.311 340.463C404.42 340.463 403.763 341.067 403.763 341.937C403.763 342.828 404.42 343.421 405.311 343.421C406.18 343.421 406.849 342.828 406.849 341.937C406.849 341.067 406.18 340.463 405.311 340.463Z" fill="white"/>
<path d="M282.693 363.38H513.509C516.305 363.38 518.572 365.647 518.572 368.443V384.786C518.572 387.583 516.305 389.85 513.509 389.85H282.693C279.896 389.85 277.629 387.583 277.629 384.786V368.443C277.629 365.647 279.896 363.38 282.693 363.38Z" stroke="#E8E8EE" stroke-width="0.678715"/>
<g opacity="0.08">
<path d="M277.289 368.443C277.289 365.459 279.708 363.04 282.692 363.04H513.509C516.493 363.04 518.912 365.459 518.912 368.443V384.786C518.912 387.77 516.493 390.189 513.509 390.189H282.692C279.708 390.189 277.289 387.77 277.289 384.786V368.443Z" fill="#E8E8EE"/>
</g>
<path d="M388.783 372.589V380.903H387.901V372.589H388.783ZM381.953 378.639C382.635 378.634 383.419 378.63 384.236 378.602V377.776C383.261 377.651 382.63 377.08 382.64 376.264C382.63 375.326 383.447 374.705 384.653 374.705C385.869 374.705 386.704 375.326 386.704 376.264C386.704 377.071 386.073 377.637 385.108 377.767V378.574C385.878 378.542 386.658 378.481 387.391 378.389L387.456 379.047C385.609 379.354 383.595 379.372 382.074 379.372L381.953 378.639ZM387.205 373.582V374.287H382.129V373.582H384.236V372.608H385.117V373.582H387.205ZM384.653 375.391C383.957 375.391 383.466 375.735 383.475 376.264C383.466 376.793 383.957 377.117 384.653 377.117C385.368 377.117 385.86 376.793 385.86 376.264C385.86 375.735 385.368 375.391 384.653 375.391ZM396.964 372.598V378.899H396.083V378.101H394.412V377.479H396.083V372.598H396.964ZM397.168 380.012V380.727H391.164V378.286H392.037V380.012H397.168ZM390.014 376.394C391.554 376.384 393.623 376.366 395.396 376.143L395.452 376.774C394.742 376.89 393.995 376.969 393.262 377.015V378.639H392.38V377.062C391.573 377.099 390.798 377.103 390.125 377.099L390.014 376.394ZM392.733 372.914C393.948 372.914 394.793 373.498 394.793 374.38C394.793 375.261 393.948 375.827 392.733 375.827C391.499 375.827 390.663 375.261 390.663 374.38C390.663 373.498 391.499 372.914 392.733 372.914ZM392.733 373.573C391.99 373.563 391.489 373.879 391.499 374.38C391.489 374.872 391.99 375.178 392.733 375.178C393.447 375.178 393.948 374.872 393.958 374.38C393.948 373.879 393.447 373.563 392.733 373.573ZM404.672 372.589V375.902H405.962V376.635H404.672V380.894H403.791V372.589H404.672ZM402.501 373.461C402.492 375.865 401.434 378.008 398.696 379.363L398.205 378.676C400.288 377.637 401.42 376.134 401.601 374.194H398.622V373.461H402.501ZM413.234 372.589V377.052H412.353V372.589H413.234ZM408.659 377.451V378.389H412.362V377.451H413.234V380.801H407.796V377.451H408.659ZM408.659 380.077H412.362V379.084H408.659V380.077ZM408.724 372.969C409.996 372.969 410.933 373.758 410.933 374.9C410.933 376.041 409.996 376.83 408.724 376.82C407.453 376.83 406.507 376.041 406.507 374.9C406.507 373.758 407.453 372.969 408.724 372.969ZM408.724 373.712C407.936 373.703 407.37 374.194 407.37 374.9C407.37 375.614 407.936 376.097 408.724 376.097C409.504 376.097 410.07 375.614 410.07 374.9C410.07 374.194 409.504 373.703 408.724 373.712Z" fill="#2B2D36"/>
<g clip-path="url(#clip3_302_11397)">
<path d="M396.247 42.9887V35.1446C397.599 36.1508 399.249 36.7226 400.945 36.7226C405.277 36.7226 408.806 33.2007 408.806 28.8785C408.806 24.5563 405.277 21.0344 400.945 21.0344C396.613 21.0344 393.084 24.5563 393.084 28.8785V43.0116L396.247 42.9887ZM400.945 24.1675C403.535 24.1675 405.643 26.2714 405.643 28.8556C405.643 31.4398 403.535 33.5438 400.945 33.5438C398.355 33.5438 396.247 31.4398 396.247 28.8556C396.247 26.2714 398.355 24.1675 400.945 24.1675Z" fill="#2B2D36"/>
<path d="M418.638 20.9885C414.284 20.9885 410.777 24.5104 410.777 28.8326C410.777 33.1548 414.306 36.6767 418.638 36.6767C422.97 36.6767 426.499 33.1548 426.499 28.8326C426.499 24.5104 422.993 20.9885 418.638 20.9885ZM418.638 33.5436C416.025 33.5436 413.917 31.4397 413.917 28.8326C413.917 26.2255 416.025 24.1216 418.638 24.1216C421.251 24.1216 423.359 26.2255 423.359 28.8326C423.359 31.4397 421.251 33.5436 418.638 33.5436Z" fill="#2B2D36"/>
<path d="M435.919 21.4001C432 21.4001 428.837 24.5561 428.837 28.4667V36.3108H431.977V28.4667C431.977 26.2941 433.741 24.5332 435.919 24.5332H437.5V21.4001H435.919Z" fill="#2B2D36"/>
<path d="M390.563 28.8556C390.563 24.5104 387.034 21.0115 382.702 21.0115C378.347 21.0115 374.841 24.5333 374.841 28.8556C374.841 33.1778 378.37 36.6996 382.702 36.6996C384.467 36.6996 386.117 36.105 387.423 35.1217V36.3109H390.563V29.1071C390.54 29.0385 390.563 28.947 390.563 28.8556ZM382.679 33.5437C380.066 33.5437 377.958 31.4397 377.958 28.8327C377.958 26.2256 380.066 24.1217 382.679 24.1217C385.292 24.1217 387.4 26.2256 387.4 28.8327C387.4 31.4397 385.292 33.5437 382.679 33.5437Z" fill="#2B2D36"/>
<path d="M374.589 21.4001L367.919 36.3108H365.146L358.5 21.4001H361.938L366.544 31.6912L371.128 21.4001H374.589Z" fill="#2B2D36"/>
</g>
</g>
<path d="M8 0.5H788C792.142 0.5 795.5 3.85786 795.5 8V444C795.5 448.142 792.142 451.5 788 451.5H8C3.85787 451.5 0.5 448.142 0.5 444V8C0.500002 3.85787 3.85787 0.5 8 0.5Z" stroke="#E1E1E8"/>
<defs>
<linearGradient id="paint0_linear_302_11397" x1="398" y1="0" x2="398" y2="563" gradientUnits="userSpaceOnUse">
<stop stop-color="white"/>
<stop offset="1" stop-color="#EAF1FE"/>
</linearGradient>
<clipPath id="clip0_302_11397">
<path d="M0 8C0 3.58173 3.58172 0 8 0H788C792.418 0 796 3.58172 796 8V444C796 448.418 792.418 452 788 452H7.99999C3.58171 452 0 448.418 0 444V8Z" fill="white"/>
</clipPath>
<clipPath id="clip1_302_11397">
<path d="M277.289 193.841C277.289 190.857 279.708 188.438 282.692 188.438H513.509C516.493 188.438 518.912 190.857 518.912 193.841V210.183C518.912 213.167 516.493 215.586 513.509 215.586H282.692C279.708 215.586 277.289 213.167 277.289 210.183V193.841Z" fill="white"/>
</clipPath>
<clipPath id="clip2_302_11397">
<path d="M277.289 250.278C277.289 247.294 279.708 244.875 282.692 244.875H513.509C516.493 244.875 518.912 247.294 518.912 250.278V266.621C518.912 269.605 516.493 272.024 513.509 272.024H282.692C279.708 272.024 277.289 269.605 277.289 266.621V250.278Z" fill="white"/>
</clipPath>
<clipPath id="clip3_302_11397">
<rect width="79" height="28" fill="white" transform="translate(358.5 18)"/>
</clipPath>
</defs>
</svg>
