<svg xmlns="http://www.w3.org/2000/svg" width="320" height="240" viewBox="0 0 320 240" fill="none">
<path d="M147.283 136.35L127.754 116.821C126.089 115.155 123.969 114.323 121.396 114.323C118.822 114.323 116.703 115.155 115.037 116.821C113.372 118.486 112.539 120.605 112.539 123.179C112.539 125.753 113.372 127.872 115.037 129.537L140.925 155.425C142.742 157.242 144.861 158.15 147.283 158.15C149.705 158.15 151.825 157.242 153.642 155.425L204.962 104.104C206.628 102.439 207.46 100.319 207.46 97.7457C207.46 95.1721 206.628 93.0526 204.962 91.3873C203.297 89.7221 201.178 88.8894 198.604 88.8894C196.03 88.8894 193.911 89.7221 192.246 91.3873L147.283 136.35ZM160 210.833C147.435 210.833 135.626 208.449 124.575 203.68C113.523 198.911 103.91 192.439 95.7353 184.264C87.5603 176.089 81.0884 166.476 76.3196 155.425C71.5509 144.373 69.1665 132.565 69.1665 120C69.1665 107.435 71.5509 95.6262 76.3196 84.5748C81.0884 73.5234 87.5603 63.9103 95.7353 55.7353C103.91 47.5603 113.523 41.0884 124.575 36.3196C135.626 31.5509 147.435 29.1665 160 29.1665C172.565 29.1665 184.373 31.5509 195.425 36.3196C206.476 41.0884 216.089 47.5603 224.264 55.7353C232.439 63.9103 238.911 73.5234 243.68 84.5748C248.449 95.6262 250.833 107.435 250.833 120C250.833 132.565 248.449 144.373 243.68 155.425C238.911 166.476 232.439 176.089 224.264 184.264C216.089 192.439 206.476 198.911 195.425 203.68C184.373 208.449 172.565 210.833 160 210.833Z" fill="#448EFE"/>
</svg>