<svg width="320" height="240" viewBox="0 0 320 240" fill="none" xmlns="http://www.w3.org/2000/svg">
<path d="M218.88 47.1105H159.148V24.0005H237.599C237.809 24.0005 238.019 24.0005 238.019 24.0005C250.218 24.2165 260.103 34.5836 260.103 47.3264H234.233" fill="url(#paint0_linear_1179_126577)"/>
<path d="M239.701 24.0005C235.074 24.2165 230.868 26.3763 227.713 29.4C227.503 29.616 227.082 30.048 226.872 30.4799C224.137 33.7196 222.245 38.0393 222.245 42.5749V180.803C222.245 193.762 212.149 204.129 199.53 204.129H89.3208V41.495C89.5311 36.7434 91.424 32.4238 94.3685 29.4C97.7337 25.9443 102.15 24.0005 107.198 24.0005H217.828H238.86C239.281 24.0005 239.491 24.0005 239.701 24.0005Z" fill="url(#paint1_linear_1179_126577)"/>
<path d="M151.155 185.554H180.179C180.179 190.522 182.072 195.273 185.437 198.513C188.592 201.753 193.009 203.913 198.057 203.913H67.0258C62.1884 203.913 57.5613 201.969 54.4065 198.513C51.2517 195.273 49.1484 190.738 49.1484 185.554H135.17C135.381 185.554 151.365 185.77 151.155 185.554Z" fill="url(#paint2_linear_1179_126577)"/>
<path d="M94.5787 76.9148C94.789 84.0422 89.1103 90.0897 82.1697 90.3056H78.8045L69.5504 90.5216C55.6691 90.9536 44.1014 79.5066 43.6807 65.2518C43.4704 50.9971 54.4072 39.1181 68.2884 38.6862C82.1697 38.2542 93.7374 49.7012 94.1581 63.9559L94.3684 69.3555L94.5787 76.9148Z" fill="#CDCED6"/>
<path d="M94.5792 76.9134C94.7895 84.0408 89.1108 90.0882 82.1702 90.3042H78.805L61.5586 72.5938L76.2812 58.987L81.1186 56.1792L94.1586 69.57L94.5792 76.9134Z" fill="url(#paint3_linear_1179_126577)"/>
<path d="M65.5547 75.6181C64.7134 75.6181 63.8721 75.4021 63.2411 74.7541L57.1418 68.4907C55.8798 67.1948 55.8798 65.251 57.1418 63.9551C58.4037 62.6592 60.2966 62.6592 61.5585 63.9551L65.3443 67.8427L76.4914 56.3957C77.7534 55.0999 79.6463 55.0999 80.9082 56.3957C82.1701 57.6916 82.1701 59.6355 80.9082 60.9313L67.4476 74.7541C67.2372 75.1861 66.3959 75.6181 65.5547 75.6181Z" fill="url(#paint4_linear_1179_126577)"/>
<path d="M275.905 185.794C275.274 188.602 274.432 191.194 273.38 193.786C273.17 194.434 272.96 194.865 272.539 195.513C268.964 202.641 263.285 208.472 256.345 211.928C255.503 212.36 254.662 212.792 254.031 213.008C247.301 215.816 239.729 216.896 232.158 215.168C212.177 210.848 199.347 190.761 203.554 170.243C207.76 149.725 227.32 136.551 247.301 140.87C254.452 142.382 260.761 146.054 266.019 151.237C274.642 160.308 278.429 173.267 275.905 185.794Z" fill="url(#paint5_linear_1179_126577)"/>
<path d="M273.351 193.978C273.14 194.626 272.93 195.058 272.509 195.706C268.934 202.834 263.255 208.665 256.314 212.121C255.473 212.553 254.632 212.985 254.001 213.201L227.921 186.419L234.231 186.635L240.961 186.851L245.798 183.395C245.798 183.395 249.584 176.7 249.374 176.268C249.163 175.836 244.957 169.141 244.957 169.141L249.584 170.005L273.351 193.978Z" fill="url(#paint6_linear_1179_126577)"/>
<path d="M254.842 190.307L249.374 184.691C253.581 178.212 251.898 169.572 245.588 165.253C239.279 160.933 230.866 162.661 226.659 169.14C222.453 175.62 224.135 184.259 230.445 188.579C235.072 191.602 240.961 191.602 245.378 188.579L250.846 194.194C251.898 195.274 253.581 195.274 254.632 194.194C255.894 193.114 255.894 191.386 254.842 190.307ZM232.338 182.747C229.183 179.508 229.183 174.108 232.338 170.868C235.493 167.629 240.751 167.629 243.906 170.868C247.06 174.108 247.06 179.508 243.906 182.747C240.541 185.987 235.493 185.987 232.338 182.747Z" fill="url(#paint7_linear_1179_126577)"/>
<rect x="107.433" y="51.5322" width="34.0761" height="6.59537" rx="3.29769" fill="white"/>
<rect x="107.433" y="113.089" width="27.4807" height="6.59537" rx="3.29769" fill="white"/>
<rect x="107.433" y="133.975" width="43.9692" height="6.59537" rx="3.29769" fill="white"/>
<rect x="107.433" y="154.86" width="27.4807" height="6.59537" rx="3.29769" fill="white"/>
<rect x="107.433" y="71.3188" width="56.0607" height="6.59537" rx="3.29769" fill="white"/>
<rect x="107.433" y="92.2036" width="74.7476" height="6.59537" rx="3.29769" fill="white"/>
<rect x="148.105" y="51.5322" width="20.8854" height="6.59537" rx="3.29769" fill="white"/>
<rect x="142.609" y="113.089" width="52.763" height="6.59537" rx="3.29769" fill="white"/>
<rect x="159.097" y="133.975" width="20.8854" height="6.59537" rx="3.29769" fill="white"/>
<rect x="142.609" y="154.86" width="20.8854" height="6.59537" rx="3.29769" fill="white"/>
<rect x="172.288" y="72.4175" width="20.8854" height="6.59537" rx="3.29769" fill="white"/>
<defs>
<linearGradient id="paint0_linear_1179_126577" x1="257.445" y1="37.1546" x2="206.444" y2="-8.46934" gradientUnits="userSpaceOnUse">
<stop stop-color="#B7B8C2"/>
<stop offset="0.687677" stop-color="#97989F"/>
</linearGradient>
<linearGradient id="paint1_linear_1179_126577" x1="164.511" y1="24.0005" x2="164.511" y2="204.129" gradientUnits="userSpaceOnUse">
<stop stop-color="#F0F0F5"/>
<stop offset="1" stop-color="#E8E8EE"/>
</linearGradient>
<linearGradient id="paint2_linear_1179_126577" x1="24.9901" y1="193.688" x2="80.4811" y2="283.255" gradientUnits="userSpaceOnUse">
<stop offset="0.130151" stop-color="#B7B8C2"/>
<stop offset="0.687677" stop-color="#97989F"/>
</linearGradient>
<linearGradient id="paint3_linear_1179_126577" x1="70.9657" y1="64.0176" x2="84.1476" y2="76.8543" gradientUnits="userSpaceOnUse">
<stop stop-color="#B2B3B8"/>
<stop offset="1" stop-color="#CDCED6" stop-opacity="0"/>
</linearGradient>
<linearGradient id="paint4_linear_1179_126577" x1="86.716" y1="82.0946" x2="64.4223" y2="58.6673" gradientUnits="userSpaceOnUse">
<stop stop-color="#E1E1E8"/>
<stop offset="1" stop-color="white"/>
</linearGradient>
<linearGradient id="paint5_linear_1179_126577" x1="202.653" y1="178.129" x2="276.64" y2="178.129" gradientUnits="userSpaceOnUse">
<stop stop-color="#83B5FF"/>
<stop offset="1" stop-color="#5094FA"/>
</linearGradient>
<linearGradient id="paint6_linear_1179_126577" x1="245.163" y1="184.577" x2="258.379" y2="197.446" gradientUnits="userSpaceOnUse">
<stop stop-color="#5094FA"/>
<stop offset="1" stop-color="#5094FA" stop-opacity="0"/>
</linearGradient>
<linearGradient id="paint7_linear_1179_126577" x1="251.603" y1="190.783" x2="232.916" y2="172.586" gradientUnits="userSpaceOnUse">
<stop offset="0.0113208" stop-color="#C2DEFF"/>
<stop offset="1" stop-color="white"/>
</linearGradient>
</defs>
</svg>
