<svg width="122" height="180" viewBox="0 0 122 180" fill="none" xmlns="http://www.w3.org/2000/svg">
    <path d="M0.799316 150C0.799316 133.431 14.2757 120 30.8997 120H61V150C61 166.569 47.5236 180 30.8997 180C14.2757 180 0.799316 166.569 0.799316 150Z" fill="#24CB71"/>
    <path d="M61 0V60H91.1003C107.724 60 121.201 46.5685 121.201 30C121.201 13.4315 107.724 0 91.1003 0L61 0Z" fill="#FF7237"/>
    <ellipse cx="90.8495" cy="90" rx="30.1003" ry="30" fill="#00B6FF"/>
    <path d="M0.799316 30C0.799316 46.5685 14.2757 60 30.8997 60H61L61 -3.8147e-06H30.8997C14.2757 -3.8147e-06 0.799316 13.4315 0.799316 30Z" fill="#FF3737"/>
    <path d="M0.799316 90C0.799316 106.569 14.2757 120 30.8997 120L61 120L61 60H30.8997C14.2757 60 0.799316 73.4315 0.799316 90Z" fill="#874FFF"/>
</svg>
