<svg width="35" height="36" viewBox="0 0 35 36" fill="none" xmlns="http://www.w3.org/2000/svg">
<ellipse cx="17" cy="18" rx="11.0526" ry="8.94737" fill="#448EFE"/>
<path d="M15.1519 35.8947C14.3433 35.8947 13.6471 35.6303 13.0631 35.1013C12.4792 34.5724 12.1273 33.9259 12.0075 33.1619L11.6033 30.2526C11.214 30.1057 10.8471 29.9294 10.5027 29.7237C10.1584 29.518 9.82147 29.2976 9.49206 29.0625L6.70707 30.2086C5.95841 30.5318 5.20976 30.5612 4.4611 30.2967C3.71245 30.0322 3.1285 29.5621 2.70925 28.8862L0.598046 25.2717C0.178799 24.5958 0.0590145 23.8759 0.238692 23.1119C0.418369 22.3478 0.822642 21.716 1.45151 21.2165L3.83223 19.4533C3.80229 19.2476 3.78732 19.0492 3.78732 18.8582V17.6681C3.78732 17.4771 3.80229 17.2787 3.83223 17.073L1.45151 15.3099C0.822642 14.8103 0.418369 14.1785 0.238692 13.4145C0.0590145 12.6505 0.178799 11.9305 0.598046 11.2546L2.70925 7.64014C3.1285 6.96427 3.71245 6.49409 4.4611 6.22962C5.20976 5.96514 5.95841 5.99453 6.70707 6.31778L9.49206 7.46383C9.82147 7.22874 10.1659 7.00835 10.5252 6.80264C10.8846 6.59694 11.2439 6.42063 11.6033 6.2737L12.0075 3.36449C12.1273 2.60045 12.4792 1.95396 13.0631 1.42501C13.6471 0.896065 14.3433 0.631592 15.1519 0.631592H19.3743C20.1829 0.631592 20.8791 0.896065 21.4631 1.42501C22.047 1.95396 22.3989 2.60045 22.5187 3.36449L22.9229 6.2737C23.3122 6.42063 23.6791 6.59694 24.0235 6.80264C24.3678 7.00835 24.7047 7.22874 25.0341 7.46383L27.8191 6.31778C28.5678 5.99453 29.3164 5.96514 30.0651 6.22962C30.8137 6.49409 31.3977 6.96427 31.8169 7.64014L33.9282 11.2546C34.3474 11.9305 34.4672 12.6505 34.2875 13.4145C34.1078 14.1785 33.7036 14.8103 33.0747 15.3099L30.694 17.073C30.7239 17.2787 30.7389 17.4771 30.7389 17.6681V18.8582C30.7389 19.0492 30.7089 19.2476 30.649 19.4533L33.0298 21.2165C33.6586 21.716 34.0629 22.3478 34.2426 23.1119C34.4223 23.8759 34.3025 24.5958 33.8832 25.2717L31.7271 28.8862C31.3079 29.5621 30.7239 30.0322 29.9753 30.2967C29.2266 30.5612 28.4779 30.5318 27.7293 30.2086L25.0341 29.0625C24.7047 29.2976 24.3603 29.518 24.001 29.7237C23.6416 29.9294 23.2823 30.1057 22.9229 30.2526L22.5187 33.1619C22.3989 33.9259 22.047 34.5724 21.4631 35.1013C20.8791 35.6303 20.1829 35.8947 19.3743 35.8947H15.1519ZM17.3529 24.4342C19.0898 24.4342 20.5722 23.8318 21.7999 22.627C23.0277 21.4222 23.6416 19.9676 23.6416 18.2632C23.6416 16.5588 23.0277 15.1042 21.7999 13.8994C20.5722 12.6945 19.0898 12.0921 17.3529 12.0921C15.5861 12.0921 14.0963 12.6945 12.8835 13.8994C11.6706 15.1042 11.0642 16.5588 11.0642 18.2632C11.0642 19.9676 11.6706 21.4222 12.8835 22.627C14.0963 23.8318 15.5861 24.4342 17.3529 24.4342Z" fill="#BAD5FD"/>
</svg>
