<svg width="36" height="36" viewBox="0 0 36 36" fill="none" xmlns="http://www.w3.org/2000/svg">
<path d="M16.3188 1.06755C17.1409 0.245389 18.4739 0.245388 19.2961 1.06754L24.5589 6.33035C25.381 7.15251 25.381 8.48549 24.5589 9.30764L19.2961 14.5704C18.4739 15.3926 17.1409 15.3926 16.3188 14.5704L11.056 9.30764C10.2338 8.48549 10.2338 7.15251 11.056 6.33035L16.3188 1.06755Z" fill="#448EFE"/>
<path d="M6.33035 11.8715C7.15251 11.0493 8.48549 11.0493 9.30764 11.8715L14.5704 17.1343C15.3926 17.9564 15.3926 19.2894 14.5704 20.1116L9.30764 25.3744C8.48549 26.1965 7.15251 26.1965 6.33035 25.3744L1.06755 20.1116C0.245389 19.2894 0.245388 17.9564 1.06754 17.1343L6.33035 11.8715Z" fill="#BAD5FD"/>
<path d="M16.3189 21.86C17.1411 21.0379 18.474 21.0379 19.2962 21.86L24.559 27.1228C25.3812 27.945 25.3812 29.278 24.559 30.1001L19.2962 35.3629C18.474 36.1851 17.1411 36.1851 16.3189 35.3629L11.0561 30.1001C10.2339 29.278 10.2339 27.945 11.0561 27.1228L16.3189 21.86Z" fill="#BAD5FD"/>
<path d="M26.3073 11.8715C27.1295 11.0493 28.4625 11.0493 29.2846 11.8715L34.5474 17.1343C35.3696 17.9564 35.3696 19.2894 34.5474 20.1116L29.2846 25.3744C28.4625 26.1965 27.1295 26.1965 26.3073 25.3744L21.0445 20.1116C20.2224 19.2894 20.2224 17.9564 21.0445 17.1343L26.3073 11.8715Z" fill="#BAD5FD"/>
</svg>
