<svg width="41" height="41" viewBox="0 0 41 41" fill="none" xmlns="http://www.w3.org/2000/svg">
<path d="M20.7143 29.5835C22.2076 29.5835 23.6234 29.2595 24.9617 28.6115C26.2999 27.9634 27.3776 27.0196 28.1947 25.7799C28.5046 25.3009 28.5469 24.829 28.3215 24.3641C28.0961 23.8993 27.7298 23.6668 27.2227 23.6668C26.9973 23.6668 26.793 23.7161 26.6099 23.8147C26.4267 23.9133 26.2788 24.0613 26.1661 24.2585C25.5181 25.1319 24.7151 25.8151 23.7572 26.3082C22.7993 26.8012 21.785 27.0478 20.7143 27.0478C19.6437 27.0478 18.6294 26.8012 17.6715 26.3082C16.7135 25.8151 15.9106 25.1319 15.2625 24.2585C15.1217 24.0613 14.9597 23.9133 14.7765 23.8147C14.5934 23.7161 14.3891 23.6668 14.1637 23.6668C13.6566 23.6668 13.2903 23.8922 13.0649 24.343C12.8395 24.7938 12.8818 25.2446 13.1917 25.6954C14.0088 26.9632 15.0865 27.9282 16.4247 28.5903C17.763 29.2524 19.1929 29.5835 20.7143 29.5835ZM26.631 18.5954C27.3354 18.5954 27.9341 18.3489 28.4271 17.8558C28.9202 17.3628 29.1667 16.764 29.1667 16.0597C29.1667 15.3553 28.9202 14.7566 28.4271 14.2635C27.9341 13.7705 27.3354 13.524 26.631 13.524C25.9266 13.524 25.3279 13.7705 24.8349 14.2635C24.3418 14.7566 24.0953 15.3553 24.0953 16.0597C24.0953 16.764 24.3418 17.3628 24.8349 17.8558C25.3279 18.3489 25.9266 18.5954 26.631 18.5954ZM14.7977 18.5954C15.502 18.5954 16.1007 18.3489 16.5938 17.8558C17.0869 17.3628 17.3334 16.764 17.3334 16.0597C17.3334 15.3553 17.0869 14.7566 16.5938 14.2635C16.1007 13.7705 15.502 13.524 14.7977 13.524C14.0933 13.524 13.4946 13.7705 13.0015 14.2635C12.5085 14.7566 12.262 15.3553 12.262 16.0597C12.262 16.764 12.5085 17.3628 13.0015 17.8558C13.4946 18.3489 14.0933 18.5954 14.7977 18.5954ZM20.7143 37.1906C18.3758 37.1906 16.1782 36.7469 14.1215 35.8594C12.0647 34.9719 10.2756 33.7674 8.75421 32.246C7.23278 30.7246 6.02832 28.9355 5.14082 26.8787C4.25332 24.822 3.80957 22.6244 3.80957 20.2859C3.80957 17.9474 4.25332 15.7498 5.14082 13.693C6.02832 11.6363 7.23278 9.84718 8.75421 8.32575C10.2756 6.80432 12.0647 5.59985 14.1215 4.71235C16.1782 3.82485 18.3758 3.3811 20.7143 3.3811C23.0528 3.3811 25.2504 3.82485 27.3072 4.71235C29.3639 5.59985 31.153 6.80432 32.6745 8.32575C34.1959 9.84718 35.4003 11.6363 36.2878 13.693C37.1753 15.7498 37.6191 17.9474 37.6191 20.2859C37.6191 22.6244 37.1753 24.822 36.2878 26.8787C35.4003 28.9355 34.1959 30.7246 32.6745 32.246C31.153 33.7674 29.3639 34.9719 27.3072 35.8594C25.2504 36.7469 23.0528 37.1906 20.7143 37.1906Z" fill="#448EFE"/>
</svg>
