<svg width="40" height="40" viewBox="0 0 40 40" fill="none" xmlns="http://www.w3.org/2000/svg">
<path d="M3.71436 5.99995C3.71436 4.73758 4.7377 3.71423 6.00007 3.71423H15.1429C16.4053 3.71423 17.4286 4.73758 17.4286 5.99995V15.1428C17.4286 16.4052 16.4053 17.4285 15.1429 17.4285H6.00007C4.7377 17.4285 3.71436 16.4052 3.71436 15.1428V5.99995Z" fill="#448EFE"/>
<path d="M22.5715 24.8571C22.5715 23.5947 23.5948 22.5714 24.8572 22.5714H34.0001C35.2624 22.5714 36.2858 23.5947 36.2858 24.8571V33.9999C36.2858 35.2623 35.2624 36.2857 34.0001 36.2857H24.8572C23.5948 36.2857 22.5715 35.2623 22.5715 33.9999V24.8571Z" fill="#448EFE"/>
<path d="M22.5715 10.5714C22.5715 6.78428 25.6415 3.71423 29.4286 3.71423C33.2157 3.71423 36.2858 6.78428 36.2858 10.5714C36.2858 14.3585 33.2157 17.4285 29.4286 17.4285C25.6415 17.4285 22.5715 14.3585 22.5715 10.5714Z" fill="#BAD5FD"/>
<path d="M9.01533 24.0155C9.70696 22.8519 11.436 22.8519 12.1277 24.0155L17.1852 32.5246C17.8769 33.6883 17.0123 35.1428 15.6291 35.1428H5.51395C4.13068 35.1428 3.26615 33.6883 3.95778 32.5246L9.01533 24.0155Z" fill="#BAD5FD"/>
</svg>
