<svg width="68" height="24" viewBox="0 0 68 24" fill="currentColor" xmlns="http://www.w3.org/2000/svg">
    <path d="M32.4909 21.4189V14.6954C33.6548 15.5579 35.0752 16.0479 36.535 16.0479C40.2635 16.0479 43.3015 13.0292 43.3015 9.32444C43.3015 5.61966 40.2635 2.60095 36.535 2.60095C32.8066 2.60095 29.7686 5.61966 29.7686 9.32444V21.4385L32.4909 21.4189ZM36.535 5.28643C38.7642 5.28643 40.5791 7.08981 40.5791 9.30484C40.5791 11.5199 38.7642 13.3233 36.535 13.3233C34.3058 13.3233 32.4909 11.5199 32.4909 9.30484C32.4909 7.08981 34.3058 5.28643 36.535 5.28643Z" fill="currentColor"/>
    <path d="M51.7645 2.56161C48.0163 2.56161 44.998 5.58033 44.998 9.28511C44.998 12.9899 48.036 16.0086 51.7645 16.0086C55.493 16.0086 58.531 12.9899 58.531 9.28511C58.531 5.58033 55.5127 2.56161 51.7645 2.56161ZM51.7645 13.3231C49.5156 13.3231 47.7007 11.5197 47.7007 9.28511C47.7007 7.05048 49.5156 5.24709 51.7645 5.24709C54.0134 5.24709 55.8283 7.05048 55.8283 9.28511C55.8283 11.5197 54.0134 13.3231 51.7645 13.3231Z" fill="currentColor"/>
    <path d="M66.6387 2.91446C63.2653 2.91446 60.543 5.61954 60.543 8.97148V15.695H63.2456V8.97148C63.2456 7.10929 64.7646 5.59994 66.6387 5.59994H67.9999V2.91446H66.6387Z" fill="currentColor"/>
    <path d="M27.5986 9.30479C27.5986 5.58041 24.5606 2.5813 20.8321 2.5813C17.0839 2.5813 14.0657 5.60001 14.0657 9.30479C14.0657 13.0096 17.1037 16.0283 20.8321 16.0283C22.3511 16.0283 23.7715 15.5186 24.896 14.6757V15.6951H27.5986V9.52041C27.5789 9.46161 27.5986 9.3832 27.5986 9.30479ZM20.8124 13.3232C18.5635 13.3232 16.7486 11.5198 16.7486 9.28519C16.7486 7.05056 18.5635 5.24717 20.8124 5.24717C23.0613 5.24717 24.8762 7.05056 24.8762 9.28519C24.8762 11.5198 23.0613 13.3232 20.8124 13.3232Z" fill="currentColor"/>
    <path d="M13.8486 2.91446L8.10792 15.695H5.72092L0 2.91446H2.95909L6.92428 11.7354L10.8697 2.91446H13.8486Z" fill="currentColor"/>
</svg>
