<svg xmlns="http://www.w3.org/2000/svg" width="20" height="20" viewBox="0 0 20 20" fill="none">
  <path d="M4.875 13.75L6.54167 15.4166C6.69444 15.5694 6.77083 15.7465 6.77083 15.9479C6.77083 16.1493 6.69444 16.3297 6.54167 16.4891C6.38889 16.6352 6.21181 16.7083 6.01042 16.7083C5.80903 16.7083 5.63194 16.6319 5.47917 16.4791L2.52083 13.5208C2.45139 13.4458 2.39931 13.3645 2.36458 13.277C2.32986 13.1895 2.3125 13.0958 2.3125 12.9958C2.3125 12.8958 2.32986 12.802 2.36458 12.7145C2.39931 12.627 2.45139 12.5486 2.52083 12.4791L5.48208 9.51788C5.63292 9.36704 5.81021 9.29163 6.01396 9.29163C6.21757 9.29163 6.39347 9.36802 6.54167 9.52079C6.69444 9.66899 6.77083 9.84489 6.77083 10.0485C6.77083 10.2523 6.69444 10.4305 6.54167 10.5833L4.875 12.25H16.25C16.4625 12.25 16.6406 12.3214 16.7844 12.4643C16.9281 12.6073 17 12.7843 17 12.9956C17 13.2068 16.9281 13.3854 16.7844 13.5312C16.6406 13.677 16.4625 13.75 16.25 13.75H4.875ZM15.125 7.74996H3.75C3.5375 7.74996 3.35938 7.6785 3.21563 7.53559C3.07188 7.39267 3 7.21559 3 7.00434C3 6.79309 3.07188 6.61454 3.21563 6.46871C3.35938 6.32288 3.5375 6.24996 3.75 6.24996H15.125L13.4583 4.58329C13.3056 4.43052 13.2292 4.25343 13.2292 4.05204C13.2292 3.85065 13.3056 3.67024 13.4583 3.51079C13.6111 3.36468 13.7882 3.29163 13.9896 3.29163C14.191 3.29163 14.3681 3.36801 14.5208 3.52079L17.4792 6.47913C17.5486 6.55413 17.6007 6.63538 17.6354 6.72288C17.6701 6.81038 17.6875 6.90413 17.6875 7.00413C17.6875 7.10413 17.6701 7.19788 17.6354 7.28538C17.6007 7.37288 17.5486 7.45135 17.4792 7.52079L14.5179 10.482C14.3671 10.6329 14.1944 10.7048 14 10.6979C13.8056 10.6909 13.6319 10.6144 13.4792 10.4683C13.3264 10.3088 13.25 10.1273 13.25 9.9235C13.25 9.71989 13.3264 9.54399 13.4792 9.39579L15.125 7.74996Z" fill="currentColor"/>
</svg>